<svg xmlns="http://www.w3.org/2000/svg" width="1200" height="600" viewBox="0 0 1200 600"><defs><linearGradient id="g" x1="0" x2="1"><stop stop-color="#8d3dff"/><stop offset="1" stop-color="#00f0a8"/></linearGradient></defs><rect width="1200" height="600" fill="#050509"/><g opacity=".18" stroke="url(#g)"><path d="M0 500 C200 350 350 650 560 430 S900 260 1200 110" fill="none"/><path d="M0 560 C240 420 350 660 620 470 S980 300 1200 170" fill="none"/><path d="M100 0 V600M220 0 V600M340 0 V600M460 0 V600M580 0 V600M700 0 V600M820 0 V600M940 0 V600M1060 0 V600M0 120H1200M0 240H1200M0 360H1200M0 480H1200" opacity=".25"/></g><g opacity=".25" fill="url(#g)"><circle cx="910" cy="180" r="3"/><circle cx="980" cy="260" r="4"/><circle cx="820" cy="330" r="3"/><circle cx="1080" cy="120" r="5"/></g></svg>
